<svg xmlns="http://www.w3.org/2000/svg" viewBox="0 0 58 58" width="58" height="58">
	<style>
		tspan { white-space:pre }
		.shp0 { opacity: 0.502;fill: #f5c506 } 
		.shp1 { fill: #f5c506 } 
	</style>
	<g id="footer">
		<g id="logo+_footer">
			<path id="Shape 8 copy 4" class="shp0" d="M3.41 16.5L15.63 16.04L15.55 3.81L20.77 8.8L20.85 21.03L8.63 21.49L3.41 16.5ZM11.33 24.07L23.55 23.61L23.47 11.38L28.69 16.37L28.77 28.6L16.55 29.06L11.33 24.07ZM42.45 53.83L42.37 41.6L54.59 41.14L49.37 36.15L37.15 36.61L37.23 48.84L42.45 53.83ZM34.53 46.26L34.45 34.03L46.67 33.56L41.45 28.58L29.23 29.04L29.31 41.27L34.53 46.26ZM41.32 3.23L41.78 15.45L54.01 15.37L49.02 20.59L36.79 20.67L36.33 8.45L41.32 3.23ZM33.75 11.15L34.21 23.37L46.44 23.29L41.45 28.5L29.22 28.59L28.76 16.37L33.75 11.15ZM3.99 42.27L16.22 42.18L16.68 54.4L21.67 49.19L21.21 36.97L8.98 37.05L3.99 42.27ZM11.56 34.35L23.79 34.27L24.25 46.49L29.24 41.27L28.78 29.05L16.55 29.13L11.56 34.35Z" />
			<path id="Shape 8 copy 3" class="shp1" d="M1.99 37.78L10.5 29L1.99 20.22L9.21 20.22L17.72 29L9.21 37.78L1.99 37.78ZM12.95 37.78L21.46 29L12.95 20.22L20.17 20.22L28.68 29L20.17 37.78L12.95 37.78ZM56.01 37.78L47.49 29L56.01 20.22L48.79 20.22L40.28 29L48.79 37.78L56.01 37.78ZM45.05 37.78L36.54 29L45.05 20.22L37.83 20.22L29.32 29L37.83 37.78L45.05 37.78ZM20.22 1.99L29 10.5L37.78 1.99L37.78 9.21L29 17.72L20.22 9.21L20.22 1.99ZM20.22 12.95L29 21.46L37.78 12.95L37.78 20.17L29 28.68L20.22 20.17L20.22 12.95ZM20.22 56.01L29 47.5L37.78 56.01L37.78 48.79L29 40.28L20.22 48.79L20.22 56.01ZM20.22 45.05L29 36.54L37.78 45.05L37.78 37.83L29 29.32L20.22 37.83L20.22 45.05Z" />
		</g>
	</g>
</svg>